<svg width="232" height="108" viewBox="0 0 232 108" fill="none" xmlns="http://www.w3.org/2000/svg">
<g filter="url(#filter0_df_75_2)">
<path d="M12 23.3271L26.6338 12H205.1L220 23.5333V84.2607L204.834 96H26.9L12 84.4668V23.3271Z" stroke="#463331" stroke-width="4" shape-rendering="crispEdges"/>
</g>
<path d="M12 23.3271L26.6338 12H205.1L220 23.5333V84.2607L204.834 96H26.9L12 84.4668V23.3271Z" fill="#AC7B60"/>
<path d="M24 28.5741L37.0157 19H195.747L209 28.7483V80.0775L195.511 90H37.2524L24 80.2517V28.5741Z" fill="url(#paint0_linear_75_2)"/>
<path d="M24 28.5741L37.0157 19H195.747L209 28.7483V80.0775L195.511 90H37.2524L24 80.2517V28.5741Z" fill="url(#paint1_linear_75_2)"/>
<g filter="url(#filter1_f_75_2)">
<path d="M24.5 79.9988V28.827L37.1798 19.5H195.583L208.5 29.0012V79.8246L195.347 89.5H37.4165L24.5 79.9988Z" stroke="url(#paint2_linear_75_2)"/>
</g>
<path opacity="0.71" d="M12 84.2173L23.7512 79.6819L36.9512 89.4504L27.0078 95.7302L12 84.2173Z" fill="#998F8F"/>
<path opacity="0.71" d="M12 84.2173L23.7512 79.6819L36.9512 89.4504L27.0078 95.7302L12 84.2173Z" fill="#5A290D"/>
<path d="M204.837 95.73L194.799 89.4502L36.9511 89.4502L27.0078 95.73H204.837Z" fill="#91644B"/>
<path d="M195 89.4894L208.393 79L220 83.7021L204.821 96L195 89.4894Z" fill="#724227"/>
<path d="M12 24L24 28.4828V79.5172L12 84V24Z" fill="#88583E"/>
<path d="M220 24L209 28.4828V79.5172L220 84V24Z" fill="#936247"/>
<path d="M12 23.4783L27 12L37 18.2609L23.8182 28L12 23.4783Z" fill="#A66B4B"/>
<path d="M205.268 12L220 23.4783L208.393 28L195 18.2609L205.268 12Z" fill="#835B45"/>
<path d="M12.5 84.2216V23.5724L26.8047 12.5H204.929L219.5 23.7785V84.0155L204.663 95.5H27.0709L12.5 84.2216Z" stroke="#1E1413"/>
<g filter="url(#filter2_d_75_2)">
<path d="M74 52.25V40H84.5H95V41.75V43.5H96.75H98.5V47V50.5H96.75H95V52.25V54H96.75H98.5V57.5V61H96.75H95V62.75V64.5H84.5H74V52.25ZM91.5 47V43.5H86.25H81V47V50.5H86.25H91.5V47ZM91.5 57.5V54H86.25H81V57.5V61H86.25H91.5V57.5ZM102 50.5V40H105.5H109V50.5V61H114.25H119.5V50.5V40H123H126.5V50.5V61H124.75H123V62.75V64.5H114.25H105.5V62.75V61H103.75H102V50.5ZM133.5 45.25V40H137H140.5V45.25V50.5H144H147.5V45.25V40H151H154.5V45.25V50.5H152.75H151V52.25V54H149.25H147.5V59.25V64.5H144H140.5V59.25V54H138.75H137V52.25V50.5H135.25H133.5V45.25Z" fill="white"/>
</g>
<defs>
<filter id="filter0_df_75_2" x="0" y="0" width="232" height="108" filterUnits="userSpaceOnUse" color-interpolation-filters="sRGB">
<feFlood flood-opacity="0" result="BackgroundImageFix"/>
<feColorMatrix in="SourceAlpha" type="matrix" values="0 0 0 0 0 0 0 0 0 0 0 0 0 0 0 0 0 0 127 0" result="hardAlpha"/>
<feOffset/>
<feGaussianBlur stdDeviation="5"/>
<feComposite in2="hardAlpha" operator="out"/>
<feColorMatrix type="matrix" values="0 0 0 0 0 0 0 0 0 0 0 0 0 0 0 0 0 0 0.85 0"/>
<feBlend mode="normal" in2="BackgroundImageFix" result="effect1_dropShadow_75_2"/>
<feBlend mode="normal" in="SourceGraphic" in2="effect1_dropShadow_75_2" result="shape"/>
<feGaussianBlur stdDeviation="1" result="effect2_foregroundBlur_75_2"/>
</filter>
<filter id="filter1_f_75_2" x="22" y="17" width="189" height="75" filterUnits="userSpaceOnUse" color-interpolation-filters="sRGB">
<feFlood flood-opacity="0" result="BackgroundImageFix"/>
<feBlend mode="normal" in="SourceGraphic" in2="BackgroundImageFix" result="shape"/>
<feGaussianBlur stdDeviation="1" result="effect1_foregroundBlur_75_2"/>
</filter>
<filter id="filter2_d_75_2" x="72" y="38" width="84.5" height="28.5" filterUnits="userSpaceOnUse" color-interpolation-filters="sRGB">
<feFlood flood-opacity="0" result="BackgroundImageFix"/>
<feColorMatrix in="SourceAlpha" type="matrix" values="0 0 0 0 0 0 0 0 0 0 0 0 0 0 0 0 0 0 127 0" result="hardAlpha"/>
<feOffset/>
<feGaussianBlur stdDeviation="1"/>
<feComposite in2="hardAlpha" operator="out"/>
<feColorMatrix type="matrix" values="0 0 0 0 0 0 0 0 0 0 0 0 0 0 0 0 0 0 0.59 0"/>
<feBlend mode="normal" in2="BackgroundImageFix" result="effect1_dropShadow_75_2"/>
<feBlend mode="normal" in="SourceGraphic" in2="effect1_dropShadow_75_2" result="shape"/>
</filter>
<linearGradient id="paint0_linear_75_2" x1="138.5" y1="-78.5" x2="209" y2="159.5" gradientUnits="userSpaceOnUse">
<stop stop-color="#DAB28F"/>
<stop offset="0.475" stop-color="#D7A479"/>
<stop offset="0.482252" stop-color="#9F7664"/>
<stop offset="1" stop-color="#98705E"/>
</linearGradient>
<linearGradient id="paint1_linear_75_2" x1="196.5" y1="23.5" x2="48" y2="96.5" gradientUnits="userSpaceOnUse">
<stop stop-color="#936247"/>
<stop offset="0.33" stop-color="#AC7B60"/>
<stop offset="1" stop-color="#CEB7A8" stop-opacity="0"/>
</linearGradient>
<linearGradient id="paint2_linear_75_2" x1="43.5" y1="3.49999" x2="193" y2="100.5" gradientUnits="userSpaceOnUse">
<stop stop-color="white"/>
<stop offset="0.0001" stop-color="#FFDA7B"/>
<stop offset="1" stop-color="#BEA9A0"/>
</linearGradient>
</defs>
</svg>
