<svg width="232" height="108" viewBox="0 0 232 108" fill="none" xmlns="http://www.w3.org/2000/svg">
<g filter="url(#filter0_df_23_77)">
<path d="M12 23.3271L26.6338 12H205.1L220 23.5333V84.2607L204.834 96H26.9L12 84.4668V23.3271Z" stroke="#8F3428" stroke-width="4" shape-rendering="crispEdges"/>
</g>
<path d="M12 23.3271L26.6338 12H205.1L220 23.5333V84.2607L204.834 96H26.9L12 84.4668V23.3271Z" fill="#DE5A12"/>
<path d="M24 28.5741L37.0157 19H195.747L209 28.7483V80.0775L195.511 90H37.2524L24 80.2517V28.5741Z" fill="url(#paint0_linear_23_77)"/>
<path d="M24 28.5741L37.0157 19H195.747L209 28.7483V80.0775L195.511 90H37.2524L24 80.2517V28.5741Z" fill="url(#paint1_linear_23_77)"/>
<g filter="url(#filter1_f_23_77)">
<path d="M24.5 79.9988V28.827L37.1798 19.5H195.583L208.5 29.0012V79.8246L195.347 89.5H37.4165L24.5 79.9988Z" stroke="url(#paint2_linear_23_77)"/>
</g>
<path opacity="0.71" d="M12 84.2173L23.7512 79.6819L36.9512 89.4504L27.0078 95.7302L12 84.2173Z" fill="#998F8F"/>
<path opacity="0.71" d="M12 84.2173L23.7512 79.6819L36.9512 89.4504L27.0078 95.7302L12 84.2173Z" fill="#8B2D03"/>
<path d="M204.837 95.7301L194.799 89.4503L36.9511 89.4503L27.0078 95.7301H204.837Z" fill="#AB3200"/>
<path d="M195 89.4894L208.393 79L220 83.7021L204.821 96L195 89.4894Z" fill="#8D2C02"/>
<path d="M12 24L24 28.4828V79.5172L12 84V24Z" fill="#B84004"/>
<path d="M220 24L209 28.4828V79.5172L220 84V24Z" fill="#BF4208"/>
<path d="M12 23.4783L27 12L37 18.2609L23.8182 28L12 23.4783Z" fill="#F97511"/>
<path d="M205.268 12L220 23.4783L208.393 28L195 18.2609L205.268 12Z" fill="#B14602"/>
<path d="M12.5 84.2216V23.5724L26.8047 12.5H204.929L219.5 23.7785V84.0155L204.663 95.5H27.0709L12.5 84.2216Z" stroke="#7D1B0C"/>
<g filter="url(#filter2_d_23_77)">
<path d="M75 52.25V40H85.5H96V41.75V43.5H97.75H99.5V47V50.5H97.75H96V52.25V54H97.75H99.5V57.5V61H97.75H96V62.75V64.5H85.5H75V52.25ZM92.5 47V43.5H87.25H82V47V50.5H87.25H92.5V47ZM92.5 57.5V54H87.25H82V57.5V61H87.25H92.5V57.5ZM103 50.5V40H106.5H110V50.5V61H115.25H120.5V50.5V40H124H127.5V50.5V61H125.75H124V62.75V64.5H115.25H106.5V62.75V61H104.75H103V50.5ZM134.5 45.25V40H138H141.5V45.25V50.5H145H148.5V45.25V40H152H155.5V45.25V50.5H153.75H152V52.25V54H150.25H148.5V59.25V64.5H145H141.5V59.25V54H139.75H138V52.25V50.5H136.25H134.5V45.25Z" fill="white"/>
</g>
<defs>
<filter id="filter0_df_23_77" x="0" y="0" width="232" height="108" filterUnits="userSpaceOnUse" color-interpolation-filters="sRGB">
<feFlood flood-opacity="0" result="BackgroundImageFix"/>
<feColorMatrix in="SourceAlpha" type="matrix" values="0 0 0 0 0 0 0 0 0 0 0 0 0 0 0 0 0 0 127 0" result="hardAlpha"/>
<feOffset/>
<feGaussianBlur stdDeviation="5"/>
<feComposite in2="hardAlpha" operator="out"/>
<feColorMatrix type="matrix" values="0 0 0 0 0 0 0 0 0 0 0 0 0 0 0 0 0 0 0.85 0"/>
<feBlend mode="normal" in2="BackgroundImageFix" result="effect1_dropShadow_23_77"/>
<feBlend mode="normal" in="SourceGraphic" in2="effect1_dropShadow_23_77" result="shape"/>
<feGaussianBlur stdDeviation="1" result="effect2_foregroundBlur_23_77"/>
</filter>
<filter id="filter1_f_23_77" x="22" y="17" width="189" height="75" filterUnits="userSpaceOnUse" color-interpolation-filters="sRGB">
<feFlood flood-opacity="0" result="BackgroundImageFix"/>
<feBlend mode="normal" in="SourceGraphic" in2="BackgroundImageFix" result="shape"/>
<feGaussianBlur stdDeviation="1" result="effect1_foregroundBlur_23_77"/>
</filter>
<filter id="filter2_d_23_77" x="73" y="38" width="84.5" height="28.5" filterUnits="userSpaceOnUse" color-interpolation-filters="sRGB">
<feFlood flood-opacity="0" result="BackgroundImageFix"/>
<feColorMatrix in="SourceAlpha" type="matrix" values="0 0 0 0 0 0 0 0 0 0 0 0 0 0 0 0 0 0 127 0" result="hardAlpha"/>
<feOffset/>
<feGaussianBlur stdDeviation="1"/>
<feComposite in2="hardAlpha" operator="out"/>
<feColorMatrix type="matrix" values="0 0 0 0 0 0 0 0 0 0 0 0 0 0 0 0 0 0 0.59 0"/>
<feBlend mode="normal" in2="BackgroundImageFix" result="effect1_dropShadow_23_77"/>
<feBlend mode="normal" in="SourceGraphic" in2="effect1_dropShadow_23_77" result="shape"/>
</filter>
<linearGradient id="paint0_linear_23_77" x1="138.5" y1="-78.5" x2="209" y2="159.5" gradientUnits="userSpaceOnUse">
<stop stop-color="#F07408"/>
<stop offset="0.475" stop-color="#F07408"/>
<stop offset="0.482252" stop-color="#DD4905"/>
<stop offset="1" stop-color="#DD4905"/>
</linearGradient>
<linearGradient id="paint1_linear_23_77" x1="196.5" y1="23.5" x2="48" y2="96.5" gradientUnits="userSpaceOnUse">
<stop stop-color="#E24C06"/>
<stop offset="0.32" stop-color="#E24C06"/>
<stop offset="1" stop-color="#EE660D" stop-opacity="0"/>
</linearGradient>
<linearGradient id="paint2_linear_23_77" x1="43.5" y1="3.49999" x2="193" y2="100.5" gradientUnits="userSpaceOnUse">
<stop stop-color="white"/>
<stop offset="0.0001" stop-color="#FFDA7B"/>
<stop offset="1" stop-color="#FF6421"/>
</linearGradient>
</defs>
</svg>
