<svg width="250" height="250" viewBox="0 0 250 250" fill="none" xmlns="http://www.w3.org/2000/svg">
<path d="M77.9166 130.581C77.9166 140.688 85.2079 148.989 94.0989 148.989C103.146 148.989 110.295 140.688 110.281 130.581C110.437 120.459 103.146 112.159 94.0989 112.159C85.0522 112.159 77.9166 120.473 77.9166 130.581Z" fill="white"/>
<path d="M137.718 130.581C137.718 140.688 145.01 148.989 153.901 148.989C162.947 148.989 170.083 140.688 170.083 130.581C170.238 120.459 162.947 112.159 153.901 112.159C144.854 112.159 137.718 120.473 137.718 130.581Z" fill="white"/>
<path fill-rule="evenodd" clip-rule="evenodd" d="M125 250C194.036 250 250 194.036 250 125C250 55.9644 194.036 0 125 0C55.9644 0 0 55.9644 0 125C0 194.036 55.9644 250 125 250ZM149.342 54C162.367 56.256 174.825 60.2179 186.477 65.6694C206.85 96.0935 216.973 130.407 213.235 169.984C197.647 181.639 182.527 188.71 167.662 193.338C163.981 188.291 160.724 182.912 157.907 177.273C163.273 175.234 168.426 172.717 173.296 169.782C172.022 168.828 170.762 167.83 169.531 166.803C140.267 180.656 108.086 180.656 78.4689 166.803C77.2515 167.83 75.9913 168.828 74.7031 169.782C79.559 172.703 84.6981 175.219 90.0638 177.258C87.2465 182.912 83.9762 188.277 80.3093 193.323C65.4581 188.696 50.3519 181.625 34.7644 169.984C31.5789 135.844 37.9498 101.212 61.4514 65.6984C73.1031 60.2325 85.576 56.256 98.6152 54C100.229 56.8921 102.14 60.782 103.429 63.8763C117.02 61.7942 130.739 61.7942 144.585 63.8763C145.873 60.782 147.742 56.8921 149.342 54Z" fill="white"/>
</svg>
