<svg width="250" height="250" viewBox="0 0 250 250" fill="none" xmlns="http://www.w3.org/2000/svg">
<path fill-rule="evenodd" clip-rule="evenodd" d="M125 250C194.036 250 250 194.036 250 125C250 55.9644 194.036 0 125 0C55.9644 0 0 55.9644 0 125C0 194.036 55.9644 250 125 250ZM102.506 55.6727C106.139 52.6804 111.064 50.9996 116.2 51C121.336 50.9996 126.261 52.6804 129.894 55.6727C133.526 58.665 135.568 62.7239 135.571 66.957C135.566 69.226 134.974 71.4679 133.835 73.5336C132.696 75.5991 131.036 77.4408 128.966 78.9359C127.791 80.5427 127.051 82.443 127.051 84.25C127.051 85.9711 127.73 87.5337 128.802 88.9109H154.2C162.621 88.9109 169.4 95.6902 169.4 104.111V130.251C170.71 131.188 172.19 131.75 173.794 131.75C175.5 131.75 177.225 131.156 178.737 130.162C180.228 127.853 182.132 125.986 184.304 124.7C186.477 123.414 188.862 122.744 191.28 122.74C195.513 122.743 199.572 124.785 202.564 128.417C205.556 132.05 207.237 136.975 207.237 142.111C207.237 147.246 205.556 152.172 202.564 155.805C199.572 159.437 195.513 161.479 191.28 161.482C189.008 161.479 186.763 160.889 184.695 159.75C182.627 158.611 180.783 156.949 179.286 154.877C177.679 153.702 175.794 152.962 173.987 152.962C172.297 152.962 170.76 153.617 169.4 154.654V180.111C169.4 188.532 162.621 195.311 154.2 195.311H78.2C69.7792 195.311 63 188.532 63 180.111V154.654C64.3602 153.617 65.8969 152.962 67.5867 152.962C69.3938 152.962 71.2792 153.702 72.886 154.877C74.3827 156.949 76.2269 158.611 78.2952 159.75C80.3634 160.889 82.6083 161.479 84.8796 161.482C89.1128 161.479 93.1718 159.437 96.1641 155.805C99.1564 152.172 100.837 147.246 100.837 142.111C100.837 136.975 99.1564 132.05 96.1641 128.417C93.1718 124.785 89.1128 122.743 84.8796 122.74C82.4623 122.744 80.0771 123.414 77.9044 124.7C75.7316 125.986 73.8279 127.853 72.3367 130.162C70.8254 131.156 69.1 131.75 67.3938 131.75C65.7902 131.75 64.3103 131.189 63 130.251V104.111C63 95.6902 69.7792 88.9109 78.2 88.9109H104.281C105.252 87.5829 105.839 86.0774 105.839 84.443C105.839 82.7367 105.245 81.0112 104.251 79.5C101.942 78.0089 100.075 76.1052 98.7893 73.9325C97.5035 71.7596 96.8333 69.3745 96.8289 66.957C96.8318 62.7239 98.874 58.665 102.506 55.6727Z" fill="white"/>
</svg>
