<svg width="413" height="67" viewBox="0 0 413 67" fill="none" xmlns="http://www.w3.org/2000/svg">
<g filter="url(#filter0_d_81_27)">
<rect width="413" height="63" rx="15" fill="url(#paint0_linear_81_27)"/>
<rect width="413" height="63" rx="15" fill="url(#paint1_linear_81_27)" fill-opacity="0.48"/>
</g>
<path d="M33.25 20.5625V19H41.0625H48.875V20.5625V22.125H42.625H36.375V23.6875V25.25H34.8125H33.25V29.9375V34.625H34.8125H36.375V36.1875V37.75H39.5H42.625V34.625V31.5H41.0625H39.5V29.9375V28.375H44.1875H48.875V34.625V40.875H41.0625H33.25V39.3125V37.75H31.6875H30.125V36.1875V34.625H28.5625H27V29.9375V25.25H28.5625H30.125V23.6875V22.125H31.6875H33.25V20.5625ZM53.875 26.8125V25.25H61.6875H69.5V26.8125V28.375H71.0625H72.625V34.625V40.875H63.25H53.875V39.3125V37.75H52.3125H50.75V36.1875V34.625H52.3125H53.875V33.0625V31.5H60.125H66.375V29.9375V28.375H60.125H53.875V26.8125ZM66.375 36.1875V34.625H61.6875H57V36.1875V37.75H61.6875H66.375V36.1875ZM74.5 33.0625V25.25H83.875H93.25V26.8125V28.375H94.8125H96.375V34.625V40.875H93.25H90.125V34.625V28.375H88.5625H87V34.625V40.875H83.875H80.75V34.625V28.375H79.1875H77.625V34.625V40.875H76.0625H74.5V33.0625ZM101.375 26.8125V25.25H109.188H117V26.8125V28.375H118.562H120.125V31.5V34.625H112.312H104.5V36.1875V37.75H110.75H117V39.3125V40.875H109.188H101.375V39.3125V37.75H99.8125H98.25V33.0625V28.375H99.8125H101.375V26.8125ZM113.875 29.9375V28.375H109.188H104.5V29.9375V31.5H109.188H113.875V29.9375ZM152 20.5625V19H158.25H164.5V20.5625V22.125H166.062H167.625V23.6875V25.25H164.5H161.375V23.6875V22.125H158.25H155.125V23.6875V25.25H153.562H152V29.9375V34.625H153.562H155.125V36.1875V37.75H158.25H161.375V36.1875V34.625H164.5H167.625V36.1875V37.75H166.062H164.5V39.3125V40.875H158.25H152V39.3125V37.75H150.438H148.875V36.1875V34.625H147.312H145.75V29.9375V25.25H147.312H148.875V23.6875V22.125H150.438H152V20.5625ZM172.625 26.8125V25.25H180.438H188.25V26.8125V28.375H189.812H191.375V33.0625V37.75H189.812H188.25V39.3125V40.875H180.438H172.625V39.3125V37.75H171.062H169.5V33.0625V28.375H171.062H172.625V26.8125ZM185.125 33.0625V28.375H180.438H175.75V33.0625V37.75H180.438H185.125V33.0625ZM193.25 33.0625V25.25H202.625H212V26.8125V28.375H213.562H215.125V34.625V40.875H212H208.875V34.625V28.375H204.188H199.5V34.625V40.875H196.375H193.25V33.0625ZM217 33.0625V25.25H226.375H235.75V26.8125V28.375H237.312H238.875V34.625V40.875H235.75H232.625V34.625V28.375H227.938H223.25V34.625V40.875H220.125H217V33.0625ZM243.875 26.8125V25.25H251.688H259.5V26.8125V28.375H261.062H262.625V31.5V34.625H254.812H247V36.1875V37.75H253.25H259.5V39.3125V40.875H251.688H243.875V39.3125V37.75H242.312H240.75V33.0625V28.375H242.312H243.875V26.8125ZM256.375 29.9375V28.375H251.688H247V29.9375V31.5H251.688H256.375V29.9375ZM267.625 26.8125V25.25H277H286.375V26.8125V28.375H278.562H270.75V33.0625V37.75H278.562H286.375V39.3125V40.875H277H267.625V39.3125V37.75H266.062H264.5V33.0625V28.375H266.062H267.625V26.8125ZM297.625 22.125V19H300.75H303.875V22.125V25.25H307H310.125V26.8125V28.375H307H303.875V34.625V40.875H300.75H297.625V34.625V28.375H294.5H291.375V26.8125V25.25H294.5H297.625V22.125ZM318.25 26.8125V25.25H322.938H327.625V31.5V37.75H330.75H333.875V39.3125V40.875H324.5H315.125V39.3125V37.75H318.25H321.375V33.0625V28.375H319.812H318.25V26.8125ZM321.375 20.5625V19H324.5H327.625V20.5625V22.125H324.5H321.375V20.5625ZM338.875 26.8125V25.25H346.688H354.5V26.8125V28.375H356.062H357.625V33.0625V37.75H356.062H354.5V39.3125V40.875H346.688H338.875V39.3125V37.75H337.312H335.75V33.0625V28.375H337.312H338.875V26.8125ZM351.375 33.0625V28.375H346.688H342V33.0625V37.75H346.688H351.375V33.0625ZM359.5 33.0625V25.25H368.875H378.25V26.8125V28.375H379.812H381.375V34.625V40.875H378.25H375.125V34.625V28.375H370.438H365.75V34.625V40.875H362.625H359.5V33.0625Z" fill="white"/>
<defs>
<filter id="filter0_d_81_27" x="0" y="0" width="413" height="67" filterUnits="userSpaceOnUse" color-interpolation-filters="sRGB">
<feFlood flood-opacity="0" result="BackgroundImageFix"/>
<feColorMatrix in="SourceAlpha" type="matrix" values="0 0 0 0 0 0 0 0 0 0 0 0 0 0 0 0 0 0 127 0" result="hardAlpha"/>
<feOffset dy="4"/>
<feComposite in2="hardAlpha" operator="out"/>
<feColorMatrix type="matrix" values="0 0 0 0 1 0 0 0 0 0.42 0 0 0 0 0 0 0 0 1 0"/>
<feBlend mode="normal" in2="BackgroundImageFix" result="effect1_dropShadow_81_27"/>
<feBlend mode="normal" in="SourceGraphic" in2="effect1_dropShadow_81_27" result="shape"/>
</filter>
<linearGradient id="paint0_linear_81_27" x1="206.5" y1="0" x2="206.5" y2="63" gradientUnits="userSpaceOnUse">
<stop stop-color="#FFC909"/>
<stop offset="1" stop-color="#FFDD2B"/>
</linearGradient>
<linearGradient id="paint1_linear_81_27" x1="206.5" y1="0" x2="206.5" y2="63" gradientUnits="userSpaceOnUse">
<stop stop-color="white" stop-opacity="0"/>
<stop offset="0.45" stop-color="white" stop-opacity="0"/>
<stop offset="0.51" stop-color="#FF6B00"/>
<stop offset="1" stop-color="#FF6B00"/>
</linearGradient>
</defs>
</svg>
