<svg width="376" height="58" viewBox="0 0 376 58" fill="none" xmlns="http://www.w3.org/2000/svg">
<g filter="url(#filter0_d_122_55)">
<rect x="6" y="2" width="364" height="46" rx="5" fill="#B9782D"/>
</g>
<path d="M36.25 13.7249V12.1624H44.0625H51.875V13.7249V15.2874H45.625H39.375V16.8499V18.4124H37.8125H36.25V23.0999V27.7874H37.8125H39.375V29.3499V30.9124H42.5H45.625V27.7874V24.6624H44.0625H42.5V23.0999V21.5374H47.1875H51.875V27.7874V34.0374H44.0625H36.25V32.4749V30.9124H34.6875H33.125V29.3499V27.7874H31.5625H30V23.0999V18.4124H31.5625H33.125V16.8499V15.2874H34.6875H36.25V13.7249ZM56.875 19.9749V18.4124H64.6875H72.5V19.9749V21.5374H74.0625H75.625V24.6624V27.7874H67.8125H60V29.3499V30.9124H66.25H72.5V32.4749V34.0374H64.6875H56.875V32.4749V30.9124H55.3125H53.75V26.2249V21.5374H55.3125H56.875V19.9749ZM69.375 23.0999V21.5374H64.6875H60V23.0999V24.6624H64.6875H69.375V23.0999ZM86.875 15.2874V12.1624H90H93.125V15.2874V18.4124H96.25H99.375V19.9749V21.5374H96.25H93.125V27.7874V34.0374H90H86.875V27.7874V21.5374H83.75H80.625V19.9749V18.4124H83.75H86.875V15.2874ZM131.25 13.7249V12.1624H139.062H146.875V13.7249V15.2874H140.625H134.375V16.8499V18.4124H132.812H131.25V23.0999V27.7874H132.812H134.375V29.3499V30.9124H137.5H140.625V27.7874V24.6624H139.062H137.5V23.0999V21.5374H142.188H146.875V27.7874V34.0374H139.062H131.25V32.4749V30.9124H129.688H128.125V29.3499V27.7874H126.562H125V23.0999V18.4124H126.562H128.125V16.8499V15.2874H129.688H131.25V13.7249ZM151.875 19.9749V18.4124H159.688H167.5V19.9749V21.5374H169.062H170.625V27.7874V34.0374H161.25H151.875V32.4749V30.9124H150.312H148.75V29.3499V27.7874H150.312H151.875V26.2249V24.6624H158.125H164.375V23.0999V21.5374H158.125H151.875V19.9749ZM164.375 29.3499V27.7874H159.688H155V29.3499V30.9124H159.688H164.375V29.3499ZM172.5 26.2249V18.4124H181.875H191.25V19.9749V21.5374H192.812H194.375V27.7874V34.0374H191.25H188.125V27.7874V21.5374H186.562H185V27.7874V34.0374H181.875H178.75V27.7874V21.5374H177.188H175.625V27.7874V34.0374H174.062H172.5V26.2249ZM199.375 19.9749V18.4124H207.188H215V19.9749V21.5374H216.562H218.125V24.6624V27.7874H210.312H202.5V29.3499V30.9124H208.75H215V32.4749V34.0374H207.188H199.375V32.4749V30.9124H197.812H196.25V26.2249V21.5374H197.812H199.375V19.9749ZM211.875 23.0999V21.5374H207.188H202.5V23.0999V24.6624H207.188H211.875V23.0999ZM220 23.0999V12.1624H229.375H238.75V13.7249V15.2874H240.312H241.875V19.9749V24.6624H240.312H238.75V26.2249V27.7874H232.5H226.25V30.9124V34.0374H223.125H220V23.0999ZM235.625 19.9749V15.2874H230.938H226.25V19.9749V24.6624H230.938H235.625V19.9749ZM246.875 19.9749V18.4124H254.688H262.5V19.9749V21.5374H264.062H265.625V27.7874V34.0374H256.25H246.875V32.4749V30.9124H245.312H243.75V29.3499V27.7874H245.312H246.875V26.2249V24.6624H253.125H259.375V23.0999V21.5374H253.125H246.875V19.9749ZM259.375 29.3499V27.7874H254.688H250V29.3499V30.9124H254.688H259.375V29.3499ZM270.625 19.9749V18.4124H278.438H286.25V19.9749V21.5374H280H273.75V23.0999V24.6624H280H286.25V26.2249V27.7874H287.812H289.375V29.3499V30.9124H287.812H286.25V32.4749V34.0374H276.875H267.5V32.4749V30.9124H275.312H283.125V29.3499V27.7874H276.875H270.625V26.2249V24.6624H269.062H267.5V23.0999V21.5374H269.062H270.625V19.9749ZM294.375 19.9749V18.4124H302.188H310V19.9749V21.5374H303.75H297.5V23.0999V24.6624H303.75H310V26.2249V27.7874H311.562H313.125V29.3499V30.9124H311.562H310V32.4749V34.0374H300.625H291.25V32.4749V30.9124H299.062H306.875V29.3499V27.7874H300.625H294.375V26.2249V24.6624H292.812H291.25V23.0999V21.5374H292.812H294.375V19.9749Z" fill="black"/>
<path d="M329.162 41.9734L326.58 39.3911L340.485 25.4868L326.58 11.5823L329.162 9L345.649 25.4868L329.162 41.9734Z" fill="black"/>
<defs>
<filter id="filter0_d_122_55" x="0" y="0" width="376" height="58" filterUnits="userSpaceOnUse" color-interpolation-filters="sRGB">
<feFlood flood-opacity="0" result="BackgroundImageFix"/>
<feColorMatrix in="SourceAlpha" type="matrix" values="0 0 0 0 0 0 0 0 0 0 0 0 0 0 0 0 0 0 127 0" result="hardAlpha"/>
<feMorphology radius="1" operator="dilate" in="SourceAlpha" result="effect1_dropShadow_122_55"/>
<feOffset dy="4"/>
<feGaussianBlur stdDeviation="2.5"/>
<feComposite in2="hardAlpha" operator="out"/>
<feColorMatrix type="matrix" values="0 0 0 0 0 0 0 0 0 0 0 0 0 0 0 0 0 0 0.45 0"/>
<feBlend mode="normal" in2="BackgroundImageFix" result="effect1_dropShadow_122_55"/>
<feBlend mode="normal" in="SourceGraphic" in2="effect1_dropShadow_122_55" result="shape"/>
</filter>
</defs>
</svg>
