<svg width="792" height="67" viewBox="0 0 792 67" fill="none" xmlns="http://www.w3.org/2000/svg">
<g filter="url(#filter0_d_81_30)">
<rect width="792" height="63" rx="15" fill="url(#paint0_linear_81_30)"/>
<rect width="792" height="63" rx="15" fill="url(#paint1_linear_81_30)" fill-opacity="0.48"/>
</g>
<path d="M39 29.9375V19H42.125H45.25V20.5625V22.125H46.8125H48.375V23.6875V25.25H49.9375H51.5V23.6875V22.125H53.0625H54.625V20.5625V19H57.75H60.875V29.9375V40.875H57.75H54.625V36.1875V31.5H53.0625H51.5V33.0625V34.625H49.9375H48.375V33.0625V31.5H46.8125H45.25V36.1875V40.875H42.125H39V29.9375ZM65.875 26.8125V25.25H73.6875H81.5V26.8125V28.375H83.0625H84.625V31.5V34.625H76.8125H69V36.1875V37.75H75.25H81.5V39.3125V40.875H73.6875H65.875V39.3125V37.75H64.3125H62.75V33.0625V28.375H64.3125H65.875V26.8125ZM78.375 29.9375V28.375H73.6875H69V29.9375V31.5H73.6875H78.375V29.9375ZM95.875 22.125V19H99H102.125V22.125V25.25H105.25H108.375V26.8125V28.375H105.25H102.125V34.625V40.875H99H95.875V34.625V28.375H92.75H89.625V26.8125V25.25H92.75H95.875V22.125ZM113.375 26.8125V25.25H121.188H129V26.8125V28.375H130.562H132.125V34.625V40.875H122.75H113.375V39.3125V37.75H111.812H110.25V36.1875V34.625H111.812H113.375V33.0625V31.5H119.625H125.875V29.9375V28.375H119.625H113.375V26.8125ZM125.875 36.1875V34.625H121.188H116.5V36.1875V37.75H121.188H125.875V36.1875ZM134 29.9375V19H137.125H140.25V23.6875V28.375H141.812H143.375V26.8125V25.25H144.938H146.5V23.6875V22.125H148.062H149.625V20.5625V19H152.75H155.875V20.5625V22.125H154.312H152.75V23.6875V25.25H151.188H149.625V26.8125V28.375H148.062H146.5V29.9375V31.5H148.062H149.625V33.0625V34.625H151.188H152.75V36.1875V37.75H154.312H155.875V39.3125V40.875H151.188H146.5V39.3125V37.75H144.938H143.375V36.1875V34.625H141.812H140.25V37.75V40.875H137.125H134V29.9375ZM160.875 26.8125V25.25H168.688H176.5V26.8125V28.375H178.062H179.625V31.5V34.625H171.812H164V36.1875V37.75H170.25H176.5V39.3125V40.875H168.688H160.875V39.3125V37.75H159.312H157.75V33.0625V28.375H159.312H160.875V26.8125ZM173.375 29.9375V28.375H168.688H164V29.9375V31.5H168.688H173.375V29.9375ZM184.625 26.8125V25.25H192.438H200.25V26.8125V28.375H201.812H203.375V31.5V34.625H195.562H187.75V36.1875V37.75H194H200.25V39.3125V40.875H192.438H184.625V39.3125V37.75H183.062H181.5V33.0625V28.375H183.062H184.625V26.8125ZM197.125 29.9375V28.375H192.438H187.75V29.9375V31.5H192.438H197.125V29.9375ZM205.25 34.625V25.25H214.625H224V26.8125V28.375H225.562H227.125V31.5V34.625H225.562H224V36.1875V37.75H217.75H211.5V40.875V44H208.375H205.25V34.625ZM220.875 31.5V28.375H216.188H211.5V31.5V34.625H216.188H220.875V31.5ZM232.125 26.8125V25.25H239.938H247.75V26.8125V28.375H249.312H250.875V31.5V34.625H243.062H235.25V36.1875V37.75H241.5H247.75V39.3125V40.875H239.938H232.125V39.3125V37.75H230.562H229V33.0625V28.375H230.562H232.125V26.8125ZM244.625 29.9375V28.375H239.938H235.25V29.9375V31.5H239.938H244.625V29.9375ZM255.875 33.0625V25.25H259H262.125V26.8125V28.375H263.688H265.25V26.8125V25.25H269.938H274.625V26.8125V28.375H269.938H265.25V29.9375V31.5H263.688H262.125V36.1875V40.875H259H255.875V33.0625ZM303.375 20.5625V19H311.188H319V20.5625V22.125H320.562H322.125V29.9375V37.75H320.562H319V39.3125V40.875H311.188H303.375V39.3125V37.75H301.812H300.25V29.9375V22.125H301.812H303.375V20.5625ZM315.875 29.9375V22.125H311.188H306.5V29.9375V37.75H311.188H315.875V29.9375ZM336.5 20.5625V19H341.188H345.875V20.5625V22.125H342.75H339.625V23.6875V25.25H342.75H345.875V26.8125V28.375H342.75H339.625V34.625V40.875H336.5H333.375V34.625V28.375H330.25H327.125V26.8125V25.25H330.25H333.375V23.6875V22.125H334.938H336.5V20.5625ZM360.25 20.5625V19H364.938H369.625V20.5625V22.125H366.5H363.375V23.6875V25.25H366.5H369.625V26.8125V28.375H366.5H363.375V34.625V40.875H360.25H357.125V34.625V28.375H354H350.875V26.8125V25.25H354H357.125V23.6875V22.125H358.688H360.25V20.5625ZM377.75 26.8125V25.25H382.438H387.125V31.5V37.75H390.25H393.375V39.3125V40.875H384H374.625V39.3125V37.75H377.75H380.875V33.0625V28.375H379.312H377.75V26.8125ZM380.875 20.5625V19H384H387.125V20.5625V22.125H384H380.875V20.5625ZM398.375 26.8125V25.25H407.75H417.125V26.8125V28.375H409.312H401.5V33.0625V37.75H409.312H417.125V39.3125V40.875H407.75H398.375V39.3125V37.75H396.812H395.25V33.0625V28.375H396.812H398.375V26.8125ZM425.25 26.8125V25.25H429.938H434.625V31.5V37.75H437.75H440.875V39.3125V40.875H431.5H422.125V39.3125V37.75H425.25H428.375V33.0625V28.375H426.812H425.25V26.8125ZM428.375 20.5625V19H431.5H434.625V20.5625V22.125H431.5H428.375V20.5625ZM445.875 26.8125V25.25H453.688H461.5V26.8125V28.375H463.062H464.625V34.625V40.875H455.25H445.875V39.3125V37.75H444.312H442.75V36.1875V34.625H444.312H445.875V33.0625V31.5H452.125H458.375V29.9375V28.375H452.125H445.875V26.8125ZM458.375 36.1875V34.625H453.688H449V36.1875V37.75H453.688H458.375V36.1875ZM472.75 20.5625V19H477.438H482.125V28.375V37.75H485.25H488.375V39.3125V40.875H479H469.625V39.3125V37.75H472.75H475.875V29.9375V22.125H474.312H472.75V20.5625ZM493.375 29.9375V28.375H502.75H512.125V29.9375V31.5H502.75H493.375V29.9375ZM514 29.9375V19H517.125H520.25V23.6875V28.375H521.812H523.375V26.8125V25.25H524.938H526.5V26.8125V28.375H528.062H529.625V23.6875V19H532.75H535.875V29.9375V40.875H532.75H529.625V39.3125V37.75H528.062H526.5V36.1875V34.625H524.938H523.375V36.1875V37.75H521.812H520.25V39.3125V40.875H517.125H514V29.9375ZM537.75 29.9375V19H540.875H544V22.125V25.25H550.25H556.5V26.8125V28.375H558.062H559.625V34.625V40.875H556.5H553.375V34.625V28.375H548.688H544V34.625V40.875H540.875H537.75V29.9375ZM567.75 26.8125V25.25H572.438H577.125V31.5V37.75H580.25H583.375V39.3125V40.875H574H564.625V39.3125V37.75H567.75H570.875V33.0625V28.375H569.312H567.75V26.8125ZM570.875 20.5625V19H574H577.125V20.5625V22.125H574H570.875V20.5625ZM594.625 22.125V19H597.75H600.875V22.125V25.25H604H607.125V26.8125V28.375H604H600.875V34.625V40.875H597.75H594.625V34.625V28.375H591.5H588.375V26.8125V25.25H591.5H594.625V22.125ZM612.125 26.8125V25.25H619.938H627.75V26.8125V28.375H629.312H630.875V31.5V34.625H623.062H615.25V36.1875V37.75H621.5H627.75V39.3125V40.875H619.938H612.125V39.3125V37.75H610.562H609V33.0625V28.375H610.562H612.125V26.8125ZM624.625 29.9375V28.375H619.938H615.25V29.9375V31.5H619.938H624.625V29.9375ZM632.75 34.625V25.25H642.125H651.5V26.8125V28.375H653.062H654.625V31.5V34.625H653.062H651.5V36.1875V37.75H645.25H639V40.875V44H635.875H632.75V34.625ZM648.375 31.5V28.375H643.688H639V31.5V34.625H643.688H648.375V31.5ZM659.625 26.8125V25.25H667.438H675.25V26.8125V28.375H676.812H678.375V34.625V40.875H669H659.625V39.3125V37.75H658.062H656.5V36.1875V34.625H658.062H659.625V33.0625V31.5H665.875H672.125V29.9375V28.375H665.875H659.625V26.8125ZM672.125 36.1875V34.625H667.438H662.75V36.1875V37.75H667.438H672.125V36.1875ZM680.25 34.625V25.25H689.625H699V26.8125V28.375H700.562H702.125V31.5V34.625H700.562H699V36.1875V37.75H692.75H686.5V40.875V44H683.375H680.25V34.625ZM695.875 31.5V28.375H691.188H686.5V31.5V34.625H691.188H695.875V31.5ZM707.125 26.8125V25.25H714.938H722.75V26.8125V28.375H724.312H725.875V31.5V34.625H718.062H710.25V36.1875V37.75H716.5H722.75V39.3125V40.875H714.938H707.125V39.3125V37.75H705.562H704V33.0625V28.375H705.562H707.125V26.8125ZM719.625 29.9375V28.375H714.938H710.25V29.9375V31.5H714.938H719.625V29.9375ZM730.875 33.0625V25.25H734H737.125V26.8125V28.375H738.688H740.25V26.8125V25.25H744.938H749.625V26.8125V28.375H744.938H740.25V29.9375V31.5H738.688H737.125V36.1875V40.875H734H730.875V33.0625Z" fill="white"/>
<defs>
<filter id="filter0_d_81_30" x="0" y="0" width="792" height="67" filterUnits="userSpaceOnUse" color-interpolation-filters="sRGB">
<feFlood flood-opacity="0" result="BackgroundImageFix"/>
<feColorMatrix in="SourceAlpha" type="matrix" values="0 0 0 0 0 0 0 0 0 0 0 0 0 0 0 0 0 0 127 0" result="hardAlpha"/>
<feOffset dy="4"/>
<feComposite in2="hardAlpha" operator="out"/>
<feColorMatrix type="matrix" values="0 0 0 0 1 0 0 0 0 0.42 0 0 0 0 0 0 0 0 1 0"/>
<feBlend mode="normal" in2="BackgroundImageFix" result="effect1_dropShadow_81_30"/>
<feBlend mode="normal" in="SourceGraphic" in2="effect1_dropShadow_81_30" result="shape"/>
</filter>
<linearGradient id="paint0_linear_81_30" x1="396" y1="0" x2="396" y2="63" gradientUnits="userSpaceOnUse">
<stop stop-color="#FFC909"/>
<stop offset="1" stop-color="#FFDD2B"/>
</linearGradient>
<linearGradient id="paint1_linear_81_30" x1="396" y1="0" x2="396" y2="63" gradientUnits="userSpaceOnUse">
<stop stop-color="white" stop-opacity="0"/>
<stop offset="0.45" stop-color="white" stop-opacity="0"/>
<stop offset="0.51" stop-color="#FF6B00"/>
<stop offset="1" stop-color="#FF6B00"/>
</linearGradient>
</defs>
</svg>
