<svg width="250" height="250" viewBox="0 0 250 250" fill="none" xmlns="http://www.w3.org/2000/svg">
<path d="M125 0C194.038 0 250 55.962 250 125C250 194.038 194.038 250 125 250C55.962 250 0 194.038 0 125C0 55.962 55.962 0 125 0ZM168.12 175.951C170.418 168.897 181.19 98.5924 182.522 84.7391C182.924 80.5435 181.598 77.7554 179 76.5109C175.859 75 171.207 75.7554 165.81 77.7011C158.408 80.3696 63.7772 120.549 58.3098 122.875C53.125 125.076 48.2228 127.478 48.2228 130.957C48.2228 133.402 49.6739 134.777 53.6739 136.207C57.837 137.69 68.3207 140.87 74.5109 142.576C80.4728 144.223 87.2609 142.793 91.0652 140.429C95.0978 137.924 141.636 106.783 144.978 104.054C148.315 101.326 150.978 104.821 148.25 107.554C145.522 110.283 113.576 141.288 109.364 145.582C104.25 150.793 107.88 156.196 111.31 158.359C115.228 160.826 143.408 179.728 147.652 182.761C151.897 185.793 156.201 187.168 160.141 187.168C164.082 187.168 166.158 181.978 168.12 175.951Z" fill="white"/>
</svg>
