<svg width="250" height="250" viewBox="0 0 250 250" fill="none" xmlns="http://www.w3.org/2000/svg">
<path d="M163.519 194.22H184.93L132.754 121.207L126.52 112.455L86.3755 56.2818H64.9641L163.519 194.22Z" fill="white"/>
<path fill-rule="evenodd" clip-rule="evenodd" d="M125 250C194.036 250 250 194.036 250 125C250 55.9644 194.036 0 125 0C55.9644 0 0 55.9644 0 125C0 194.036 55.9644 250 125 250ZM198.875 46L140.049 112.909L204 204H156.949L113.869 142.647L59.9378 204H46L107.688 133.841L46 46H93.051L133.836 104.084L184.937 46H198.875Z" fill="white"/>
</svg>
