<svg width="250" height="250" viewBox="0 0 250 250" fill="none" xmlns="http://www.w3.org/2000/svg">
<path d="M208.333 156.25C214.086 156.25 218.75 151.586 218.75 145.833C218.75 140.08 214.086 135.417 208.333 135.417C202.58 135.417 197.917 140.08 197.917 145.833C197.917 151.586 202.58 156.25 208.333 156.25Z" fill="white"/>
<path fill-rule="evenodd" clip-rule="evenodd" d="M174.74 10.2646C192.624 4.79988 211.272 16.1613 214.618 34.5605L218.085 53.6351C230.569 57.7318 239.583 69.4798 239.583 83.3334V112.124C245.976 117.846 250 126.162 250 135.417V156.25C250 165.505 245.976 173.821 239.583 179.543V208.333C239.583 225.593 225.593 239.583 208.333 239.583H41.6666C24.4078 239.583 10.4166 225.593 10.4166 208.333V83.3334C10.4166 67.8447 21.6847 54.988 36.4706 52.5134L174.74 10.2646ZM218.75 166.667C224.503 166.667 229.167 162.003 229.167 156.25V135.417C229.167 129.664 224.503 125 218.75 125H187.5C181.747 125 177.083 129.664 177.083 135.417V156.25C177.083 162.003 181.747 166.667 187.5 166.667H218.75ZM218.75 187.5V208.333C218.75 214.087 214.086 218.75 208.333 218.75H41.6666C35.9137 218.75 31.25 214.087 31.25 208.333V83.3334C31.25 77.5805 35.9137 72.9167 41.6666 72.9167H208.333C214.062 72.9167 218.71 77.5413 218.75 83.2608V104.167H187.5C170.241 104.167 156.25 118.157 156.25 135.417V156.25C156.25 173.509 170.241 187.5 187.5 187.5H218.75ZM194.744 37.5735L197.304 52.0834H104.167L181.492 29.4064C187.463 27.6151 193.66 31.4343 194.744 37.5735Z" fill="white"/>
</svg>
