<svg width="252" height="415" viewBox="0 0 252 415" fill="none" xmlns="http://www.w3.org/2000/svg">
<g filter="url(#filter0_d_5_4150)">
<path d="M11 32.4859L34.9583 11H217.681L241 31.9129V380.27L218.319 400.61H34.3194L11 379.697V32.4859Z" fill="url(#paint0_linear_5_4150)"/>
<path d="M11 32.4859L34.9583 11H217.681L241 31.9129V380.27L218.319 400.61H34.3194L11 379.697V32.4859Z" fill="url(#paint1_radial_5_4150)" fill-opacity="0.5"/>
</g>
<g filter="url(#filter1_f_5_4150)">
<path d="M19 376.126V36.0573L38.0201 19H214.619L233 35.4843V376.699L215.258 392.61H37.3812L19 376.126Z" stroke="#070402" stroke-opacity="0.61" stroke-width="16"/>
</g>
<path d="M17 377.019V35.1644L37.2547 17H215.384L235 34.5915V377.592L216.023 394.61H36.6158L17 377.019Z" stroke="url(#paint2_linear_5_4150)" stroke-width="12"/>
<path d="M91 236.25V231H92.5H94V231.75V232.5H94.75H95.5V233.25V234H96.25H97V233.25V232.5H97.75H98.5V231.75V231H100H101.5V236.25V241.5H100H98.5V239.25V237H97.75H97V237.75V238.5H96.25H95.5V237.75V237H94.75H94V239.25V241.5H92.5H91V236.25ZM103 236.25V231H104.5H106V233.25V235.5H106.75H107.5V234.75V234H108.25H109V233.25V232.5H109.75H110.5V231.75V231H112H113.5V231.75V232.5H112.75H112V233.25V234H111.25H110.5V234.75V235.5H109.75H109V236.25V237H109.75H110.5V237.75V238.5H111.25H112V239.25V240H112.75H113.5V240.75V241.5H111.25H109V240.75V240H108.25H107.5V239.25V238.5H106.75H106V240V241.5H104.5H103V236.25ZM115 236.25V231H119.5H124V231.75V232.5H124.75H125.5V234.75V237H124.75H124V237.75V238.5H121H118V240V241.5H116.5H115V236.25ZM122.5 234.75V232.5H120.25H118V234.75V237H120.25H122.5V234.75ZM136 231.75V231H136.75H137.5V231.75V232.5H136.75H136V233.25V234H135.25H134.5V234.75V235.5H133.75H133V236.25V237H132.25H131.5V237.75V238.5H130.75H130V239.25V240H129.25H128.5V240.75V241.5H127.75H127V240.75V240H127.75H128.5V239.25V238.5H129.25H130V237.75V237H130.75H131.5V236.25V235.5H132.25H133V234.75V234H133.75H134.5V233.25V232.5H135.25H136V231.75ZM139 236.25V231H140.5H142V233.25V235.5H142.75H143.5V234.75V234H144.25H145V233.25V232.5H145.75H146.5V231.75V231H148H149.5V231.75V232.5H148.75H148V233.25V234H147.25H146.5V234.75V235.5H145.75H145V236.25V237H145.75H146.5V237.75V238.5H147.25H148V239.25V240H148.75H149.5V240.75V241.5H147.25H145V240.75V240H144.25H143.5V239.25V238.5H142.75H142V240V241.5H140.5H139V236.25ZM151 236.25V231H156.25H161.5V231.75V232.5H157.75H154V234V235.5H157H160V236.25V237H157H154V238.5V240H157.75H161.5V240.75V241.5H156.25H151V236.25ZM163 236.25V231H168.25H173.5V231.75V232.5H169.75H166V234V235.5H169H172V236.25V237H169H166V238.5V240H169.75H173.5V240.75V241.5H168.25H163V236.25ZM175 236.25V231H179.5H184V231.75V232.5H184.75H185.5V234.75V237H184.75H184V237.75V238.5H181H178V240V241.5H176.5H175V236.25ZM182.5 234.75V232.5H180.25H178V234.75V237H180.25H182.5V234.75ZM187 236.25V231H192.25H197.5V231.75V232.5H193.75H190V234V235.5H193H196V236.25V237H193H190V238.5V240H193.75H197.5V240.75V241.5H192.25H187V236.25ZM199 236.25V231H203.5H208V231.75V232.5H208.75H209.5V234.75V237H208H206.5V237.75V238.5H207.25H208V239.25V240H208.75H209.5V240.75V241.5H207.25H205V240.75V240H204.25H203.5V239.25V238.5H202.75H202V240V241.5H200.5H199V236.25ZM206.5 234V232.5H204.25H202V234.75V237H203.5H205V236.25V235.5H205.75H206.5V234Z" fill="white"/>
<path d="M37.5 231.75V231H42H46.5V231.75V232.5H45.75H45V233.25V234H44.25H43.5V234.75V235.5H44.25H45V236.25V237H45.75H46.5V238.5V240H45.75H45V240.75V241.5H41.25H37.5V240.75V240H36.75H36V239.25V238.5H37.5H39V239.25V240H41.25H43.5V238.5V237H41.25H39V236.25V235.5H39.75H40.5V234.75V234H41.25H42V233.25V232.5H39.75H37.5V231.75ZM51 231.75V231H53.25H55.5V231.75V232.5H56.25H57V233.25V234H57.75H58.5V236.25V238.5H57.75H57V239.25V240H56.25H55.5V240.75V241.5H53.25H51V240.75V240H50.25H49.5V239.25V238.5H48.75H48V236.25V234H48.75H49.5V233.25V232.5H50.25H51V231.75ZM54 233.25V232.5H52.5H51V235.5V238.5H51.75H52.5V239.25V240H54H55.5V237V234H54.75H54V233.25ZM63 231.75V231H65.25H67.5V231.75V232.5H68.25H69V233.25V234H69.75H70.5V236.25V238.5H69.75H69V239.25V240H68.25H67.5V240.75V241.5H65.25H63V240.75V240H62.25H61.5V239.25V238.5H60.75H60V236.25V234H60.75H61.5V233.25V232.5H62.25H63V231.75ZM66 233.25V232.5H64.5H63V235.5V238.5H63.75H64.5V239.25V240H66H67.5V237V234H66.75H66V233.25ZM75 231.75V231H77.25H79.5V231.75V232.5H80.25H81V233.25V234H81.75H82.5V236.25V238.5H81.75H81V239.25V240H80.25H79.5V240.75V241.5H77.25H75V240.75V240H74.25H73.5V239.25V238.5H72.75H72V236.25V234H72.75H73.5V233.25V232.5H74.25H75V231.75ZM78 233.25V232.5H76.5H75V235.5V238.5H75.75H76.5V239.25V240H78H79.5V237V234H78.75H78V233.25Z" fill="white"/>
<g filter="url(#filter2_d_5_4150)">
<path d="M56.4167 8.79224V60.247L135.148 93.3094L213.879 60.247V8.79224H56.4167Z" fill="url(#paint3_linear_5_4150)"/>
<path d="M56.4167 8.79224V60.247L135.148 93.3094L213.879 60.247V8.79224H56.4167Z" stroke="#85420D"/>
</g>
<path d="M64.7222 54.8189V8.79224H71.1111V50.3019L135 76.9741L198.889 50.3019V8.79224H205.573V54.8189L135.148 84.3934L64.7222 54.8189Z" fill="url(#paint4_linear_5_4150)"/>
<path d="M66 1H204L213.583 8.79221H56.4167L66 1Z" fill="url(#paint5_linear_5_4150)"/>
<path d="M78.9024 1H73.2927L64.7222 8.79221H71.1111L78.9024 1Z" fill="url(#paint6_linear_5_4150)"/>
<path d="M191.098 1L198.889 8.79221H205.278L196.707 1H191.098Z" fill="url(#paint7_linear_5_4150)"/>
<path d="M83.2499 48.75V33H87.7499V39.75H89.9999V37.5H92.2499V35.25H94.4999V33H98.9999V35.25H96.7499V37.5H94.4999V39.75H92.2499V42H94.4999V44.25H96.7499V46.5H98.9999V48.75H92.2499V46.5H89.9999V44.25H87.7499V48.75H83.2499ZM100.35 48.75V33H116.1V35.25H104.85V39.75H113.85V42H104.85V46.5H116.1V48.75H100.35ZM117.45 48.75V33H133.2V35.25H121.95V39.75H130.95V42H121.95V46.5H133.2V48.75H117.45ZM134.55 48.75V33H148.05V35.25H150.3V42H148.05V44.25H139.05V48.75H134.55ZM139.05 42H145.8V35.25H139.05V42ZM151.65 48.75V33H167.4V35.25H156.15V39.75H165.15V42H156.15V46.5H167.4V48.75H151.65ZM168.75 48.75V33H182.25V35.25H184.5V42H180V44.25H182.25V46.5H184.5V48.75H177.75V46.5H175.5V44.25H173.25V48.75H168.75ZM173.25 42H177.75V39.75H180V35.25H173.25V42Z" fill="white"/>
<defs>
<filter id="filter0_d_5_4150" x="3" y="9" width="246" height="405.61" filterUnits="userSpaceOnUse" color-interpolation-filters="sRGB">
<feFlood flood-opacity="0" result="BackgroundImageFix"/>
<feColorMatrix in="SourceAlpha" type="matrix" values="0 0 0 0 0 0 0 0 0 0 0 0 0 0 0 0 0 0 127 0" result="hardAlpha"/>
<feOffset dy="6"/>
<feGaussianBlur stdDeviation="4"/>
<feComposite in2="hardAlpha" operator="out"/>
<feColorMatrix type="matrix" values="0 0 0 0 0 0 0 0 0 0 0 0 0 0 0 0 0 0 0.35 0"/>
<feBlend mode="normal" in2="BackgroundImageFix" result="effect1_dropShadow_5_4150"/>
<feBlend mode="normal" in="SourceGraphic" in2="effect1_dropShadow_5_4150" result="shape"/>
</filter>
<filter id="filter1_f_5_4150" x="0.1" y="0.1" width="251.8" height="411.41" filterUnits="userSpaceOnUse" color-interpolation-filters="sRGB">
<feFlood flood-opacity="0" result="BackgroundImageFix"/>
<feBlend mode="normal" in="SourceGraphic" in2="BackgroundImageFix" result="shape"/>
<feGaussianBlur stdDeviation="5.45" result="effect1_foregroundBlur_5_4150"/>
</filter>
<filter id="filter2_d_5_4150" x="45.9167" y="4.29224" width="178.462" height="105.559" filterUnits="userSpaceOnUse" color-interpolation-filters="sRGB">
<feFlood flood-opacity="0" result="BackgroundImageFix"/>
<feColorMatrix in="SourceAlpha" type="matrix" values="0 0 0 0 0 0 0 0 0 0 0 0 0 0 0 0 0 0 127 0" result="hardAlpha"/>
<feOffset dy="6"/>
<feGaussianBlur stdDeviation="5"/>
<feComposite in2="hardAlpha" operator="out"/>
<feColorMatrix type="matrix" values="0 0 0 0 0 0 0 0 0 0 0 0 0 0 0 0 0 0 0.19 0"/>
<feBlend mode="normal" in2="BackgroundImageFix" result="effect1_dropShadow_5_4150"/>
<feBlend mode="normal" in="SourceGraphic" in2="effect1_dropShadow_5_4150" result="shape"/>
</filter>
<linearGradient id="paint0_linear_5_4150" x1="126" y1="11" x2="126" y2="400.61" gradientUnits="userSpaceOnUse">
<stop stop-color="#75440E"/>
<stop offset="0.38" stop-color="#FFCB54"/>
<stop offset="0.715" stop-color="#D1852B"/>
<stop offset="1" stop-color="#75440E"/>
</linearGradient>
<radialGradient id="paint1_radial_5_4150" cx="0" cy="0" r="1" gradientUnits="userSpaceOnUse" gradientTransform="translate(126 205.805) rotate(90) scale(194.805 115)">
<stop stop-color="#462A00"/>
<stop offset="1" stop-color="white" stop-opacity="0"/>
</radialGradient>
<linearGradient id="paint2_linear_5_4150" x1="126" y1="11" x2="126" y2="400.61" gradientUnits="userSpaceOnUse">
<stop stop-color="#793300"/>
<stop offset="0.575" stop-color="#FFE298"/>
<stop offset="1" stop-color="#793300"/>
</linearGradient>
<linearGradient id="paint3_linear_5_4150" x1="135.148" y1="8.79224" x2="135.148" y2="93.3094" gradientUnits="userSpaceOnUse">
<stop stop-color="#C69337"/>
<stop offset="0.43" stop-color="#FFC867"/>
<stop offset="1" stop-color="#C58208"/>
</linearGradient>
<linearGradient id="paint4_linear_5_4150" x1="135.148" y1="8.79224" x2="135.148" y2="84.3934" gradientUnits="userSpaceOnUse">
<stop stop-color="#FFE6CC"/>
<stop offset="0.255" stop-color="white"/>
<stop offset="0.62" stop-color="white"/>
<stop offset="1" stop-color="#EBC9A6"/>
</linearGradient>
<linearGradient id="paint5_linear_5_4150" x1="135" y1="1" x2="135" y2="8.79221" gradientUnits="userSpaceOnUse">
<stop stop-color="#6A4512"/>
<stop offset="0.255" stop-color="#95682B"/>
<stop offset="1" stop-color="#876941"/>
</linearGradient>
<linearGradient id="paint6_linear_5_4150" x1="135" y1="1" x2="135" y2="8.79221" gradientUnits="userSpaceOnUse">
<stop stop-color="#CE995E"/>
<stop offset="0.52" stop-color="#CFA475"/>
<stop offset="1" stop-color="#AF824B"/>
</linearGradient>
<linearGradient id="paint7_linear_5_4150" x1="135" y1="1" x2="135" y2="8.79221" gradientUnits="userSpaceOnUse">
<stop stop-color="#CE995E"/>
<stop offset="0.52" stop-color="#CFA475"/>
<stop offset="1" stop-color="#AF824B"/>
</linearGradient>
</defs>
</svg>
