<svg width="190" height="44" viewBox="0 0 190 44" fill="none" xmlns="http://www.w3.org/2000/svg">
<g filter="url(#filter0_d_465_11702)">
<rect width="190" height="40" rx="5" fill="url(#paint0_linear_465_11702)"/>
</g>
<path d="M19 18.75V10H21.5H24V11.25V12.5H25.25H26.5V13.75V15H27.75H29V13.75V12.5H30.25H31.5V11.25V10H34H36.5V18.75V27.5H34H31.5V23.75V20H30.25H29V21.25V22.5H27.75H26.5V21.25V20H25.25H24V23.75V27.5H21.5H19V18.75ZM43 16.25V15H46.75H50.5V20V25H53H55.5V26.25V27.5H48H40.5V26.25V25H43H45.5V21.25V17.5H44.25H43V16.25ZM45.5 11.25V10H48H50.5V11.25V12.5H48H45.5V11.25ZM57 21.25V15H64.5H72V16.25V17.5H73.25H74.5V22.5V27.5H72H69.5V22.5V17.5H65.75H62V22.5V27.5H59.5H57V21.25ZM83.5 12.5V10H86H88.5V12.5V15H91H93.5V16.25V17.5H91H88.5V22.5V27.5H86H83.5V22.5V17.5H81H78.5V16.25V15H81H83.5V12.5ZM114 18.75V10H116.5H119V11.25V12.5H120.25H121.5V13.75V15H122.75H124V16.25V17.5H125.25H126.5V13.75V10H129H131.5V18.75V27.5H129H126.5V26.25V25H125.25H124V23.75V22.5H122.75H121.5V21.25V20H120.25H119V23.75V27.5H116.5H114V18.75ZM135.5 16.25V15H141.75H148V16.25V17.5H149.25H150.5V21.25V25H149.25H148V26.25V27.5H141.75H135.5V26.25V25H134.25H133V21.25V17.5H134.25H135.5V16.25ZM145.5 21.25V17.5H141.75H138V21.25V25H141.75H145.5V21.25ZM152 20V15H153.25H154.5V20V25H155.75H157V20V15H159.5H162V20V25H163.25H164.5V20V15H167H169.5V21.25V27.5H162H154.5V26.25V25H153.25H152V20Z" fill="white"/>
<defs>
<filter id="filter0_d_465_11702" x="0" y="0" width="190" height="44" filterUnits="userSpaceOnUse" color-interpolation-filters="sRGB">
<feFlood flood-opacity="0" result="BackgroundImageFix"/>
<feColorMatrix in="SourceAlpha" type="matrix" values="0 0 0 0 0 0 0 0 0 0 0 0 0 0 0 0 0 0 127 0" result="hardAlpha"/>
<feOffset dy="4"/>
<feComposite in2="hardAlpha" operator="out"/>
<feColorMatrix type="matrix" values="0 0 0 0 1 0 0 0 0 0.42 0 0 0 0 0 0 0 0 1 0"/>
<feBlend mode="normal" in2="BackgroundImageFix" result="effect1_dropShadow_465_11702"/>
<feBlend mode="normal" in="SourceGraphic" in2="effect1_dropShadow_465_11702" result="shape"/>
</filter>
<linearGradient id="paint0_linear_465_11702" x1="95" y1="0" x2="95" y2="40" gradientUnits="userSpaceOnUse">
<stop stop-color="#FFA800"/>
<stop offset="1" stop-color="#FFDD2B"/>
</linearGradient>
</defs>
</svg>
