<svg width="253" height="416" viewBox="0 0 253 416" fill="none" xmlns="http://www.w3.org/2000/svg">
<g filter="url(#filter0_d_5_4104)">
<path d="M11.8056 33.2781L35.7639 11.7922H218.486L241.806 32.7051V381.063L219.125 401.403H35.125L11.8056 380.49V33.2781Z" fill="#481A1A"/>
<path d="M11.8056 33.2781L35.7639 11.7922H218.486L241.806 32.7051V381.063L219.125 401.403H35.125L11.8056 380.49V33.2781Z" fill="url(#paint0_linear_5_4104)"/>
<path d="M11.8056 33.2781L35.7639 11.7922H218.486L241.806 32.7051V381.063L219.125 401.403H35.125L11.8056 380.49V33.2781Z" fill="url(#paint1_radial_5_4104)" fill-opacity="0.5"/>
</g>
<g filter="url(#filter1_f_5_4104)">
<path d="M19.8056 376.918V36.8495L38.8257 19.7922H215.424L233.806 36.2765V377.491L216.063 393.403H38.1868L19.8056 376.918Z" stroke="black" stroke-opacity="0.26" stroke-width="16"/>
</g>
<path d="M17.8056 377.811V35.9566L38.0602 17.7922H216.19L235.806 35.3837V378.384L216.829 395.403H37.4213L17.8056 377.811Z" stroke="#A64134" stroke-width="12"/>
<path d="M91.8056 239.25V234H93.3056H94.8056V234.75V235.5H95.5556H96.3056V236.25V237H97.0556H97.8056V236.25V235.5H98.5556H99.3056V234.75V234H100.806H102.306V239.25V244.5H100.806H99.3056V242.25V240H98.5556H97.8056V240.75V241.5H97.0556H96.3056V240.75V240H95.5556H94.8056V242.25V244.5H93.3056H91.8056V239.25ZM103.806 239.25V234H105.306H106.806V236.25V238.5H107.556H108.306V237.75V237H109.056H109.806V236.25V235.5H110.556H111.306V234.75V234H112.806H114.306V234.75V235.5H113.556H112.806V236.25V237H112.056H111.306V237.75V238.5H110.556H109.806V239.25V240H110.556H111.306V240.75V241.5H112.056H112.806V242.25V243H113.556H114.306V243.75V244.5H112.056H109.806V243.75V243H109.056H108.306V242.25V241.5H107.556H106.806V243V244.5H105.306H103.806V239.25ZM115.806 239.25V234H120.306H124.806V234.75V235.5H125.556H126.306V237.75V240H125.556H124.806V240.75V241.5H121.806H118.806V243V244.5H117.306H115.806V239.25ZM123.306 237.75V235.5H121.056H118.806V237.75V240H121.056H123.306V237.75ZM136.806 234.75V234H137.556H138.306V234.75V235.5H137.556H136.806V236.25V237H136.056H135.306V237.75V238.5H134.556H133.806V239.25V240H133.056H132.306V240.75V241.5H131.556H130.806V242.25V243H130.056H129.306V243.75V244.5H128.556H127.806V243.75V243H128.556H129.306V242.25V241.5H130.056H130.806V240.75V240H131.556H132.306V239.25V238.5H133.056H133.806V237.75V237H134.556H135.306V236.25V235.5H136.056H136.806V234.75ZM139.806 239.25V234H141.306H142.806V236.25V238.5H143.556H144.306V237.75V237H145.056H145.806V236.25V235.5H146.556H147.306V234.75V234H148.806H150.306V234.75V235.5H149.556H148.806V236.25V237H148.056H147.306V237.75V238.5H146.556H145.806V239.25V240H146.556H147.306V240.75V241.5H148.056H148.806V242.25V243H149.556H150.306V243.75V244.5H148.056H145.806V243.75V243H145.056H144.306V242.25V241.5H143.556H142.806V243V244.5H141.306H139.806V239.25ZM151.806 239.25V234H157.056H162.306V234.75V235.5H158.556H154.806V237V238.5H157.806H160.806V239.25V240H157.806H154.806V241.5V243H158.556H162.306V243.75V244.5H157.056H151.806V239.25ZM163.806 239.25V234H169.056H174.306V234.75V235.5H170.556H166.806V237V238.5H169.806H172.806V239.25V240H169.806H166.806V241.5V243H170.556H174.306V243.75V244.5H169.056H163.806V239.25ZM175.806 239.25V234H180.306H184.806V234.75V235.5H185.556H186.306V237.75V240H185.556H184.806V240.75V241.5H181.806H178.806V243V244.5H177.306H175.806V239.25ZM183.306 237.75V235.5H181.056H178.806V237.75V240H181.056H183.306V237.75ZM187.806 239.25V234H193.056H198.306V234.75V235.5H194.556H190.806V237V238.5H193.806H196.806V239.25V240H193.806H190.806V241.5V243H194.556H198.306V243.75V244.5H193.056H187.806V239.25ZM199.806 239.25V234H204.306H208.806V234.75V235.5H209.556H210.306V237.75V240H208.806H207.306V240.75V241.5H208.056H208.806V242.25V243H209.556H210.306V243.75V244.5H208.056H205.806V243.75V243H205.056H204.306V242.25V241.5H203.556H202.806V243V244.5H201.306H199.806V239.25ZM207.306 237V235.5H205.056H202.806V237.75V240H204.306H205.806V239.25V238.5H206.556H207.306V237Z" fill="#FF8B8B"/>
<path d="M46.9999 236.25V234H51.4999H55.9999V234.75V235.5H52.9999H49.9999V236.25V237H52.9999H55.9999V237.75V238.5H56.7499H57.4999V240.75V243H56.7499H55.9999V243.75V244.5H52.2499H48.4999V243.75V243H47.7499H46.9999V242.25V241.5H48.4999H49.9999V242.25V243H52.2499H54.4999V240.75V238.5H50.7499H46.9999V236.25ZM61.9999 234.75V234H64.2499H66.4999V234.75V235.5H67.2499H67.9999V236.25V237H68.7499H69.4999V239.25V241.5H68.7499H67.9999V242.25V243H67.2499H66.4999V243.75V244.5H64.2499H61.9999V243.75V243H61.2499H60.4999V242.25V241.5H59.7499H58.9999V239.25V237H59.7499H60.4999V236.25V235.5H61.2499H61.9999V234.75ZM64.9999 236.25V235.5H63.4999H61.9999V238.5V241.5H62.7499H63.4999V242.25V243H64.9999H66.4999V240V237H65.7499H64.9999V236.25ZM73.9999 234.75V234H76.2499H78.4999V234.75V235.5H79.2499H79.9999V236.25V237H80.7499H81.4999V239.25V241.5H80.7499H79.9999V242.25V243H79.2499H78.4999V243.75V244.5H76.2499H73.9999V243.75V243H73.2499H72.4999V242.25V241.5H71.7499H70.9999V239.25V237H71.7499H72.4999V236.25V235.5H73.2499H73.9999V234.75ZM76.9999 236.25V235.5H75.4999H73.9999V238.5V241.5H74.7499H75.4999V242.25V243H76.9999H78.4999V240V237H77.7499H76.9999V236.25Z" fill="white"/>
<g filter="url(#filter2_d_5_4104)">
<path d="M51.4167 11.7922V63.247L130.148 96.3094L208.879 63.247V11.7922H51.4167Z" fill="#C94848"/>
<path d="M51.4167 11.7922V63.247L130.148 96.3094L208.879 63.247V11.7922H51.4167Z" stroke="#D97272"/>
</g>
<path d="M59.7222 57.8188V11.7922H66.1111V53.3019L130 79.974L193.889 53.3019V11.7922H200.573V57.8188L130.148 87.3934L59.7222 57.8188Z" fill="#9A3333"/>
<path d="M61 4H199L208.583 11.7922H51.4167L61 4Z" fill="#A04848"/>
<path d="M73.9025 4H68.2927L59.7222 11.7922H66.1111L73.9025 4Z" fill="#7E2A2A"/>
<path d="M186.098 4L193.889 11.7922H200.278L191.707 4H186.098Z" fill="#7E2A2A"/>
<path d="M78.6667 50.75V35H83.1667V41.75H85.4167V39.5H87.6667V37.25H89.9167V35H94.4167V37.25H92.1667V39.5H89.9167V41.75H87.6667V44H89.9167V46.25H92.1667V48.5H94.4167V50.75H87.6667V48.5H85.4167V46.25H83.1667V50.75H78.6667ZM95.7667 50.75V35H111.517V37.25H100.267V41.75H109.267V44H100.267V48.5H111.517V50.75H95.7667ZM112.867 50.75V35H128.617V37.25H117.367V41.75H126.367V44H117.367V48.5H128.617V50.75H112.867ZM129.967 50.75V35H143.467V37.25H145.717V44H143.467V46.25H134.467V50.75H129.967ZM134.467 44H141.217V37.25H134.467V44ZM147.067 50.75V35H162.817V37.25H151.567V41.75H160.567V44H151.567V48.5H162.817V50.75H147.067ZM164.167 50.75V35H177.667V37.25H179.917V44H175.417V46.25H177.667V48.5H179.917V50.75H173.167V48.5H170.917V46.25H168.667V50.75H164.167ZM168.667 44H173.167V41.75H175.417V37.25H168.667V44Z" fill="white"/>
<defs>
<filter id="filter0_d_5_4104" x="3.80556" y="9.79221" width="246" height="405.61" filterUnits="userSpaceOnUse" color-interpolation-filters="sRGB">
<feFlood flood-opacity="0" result="BackgroundImageFix"/>
<feColorMatrix in="SourceAlpha" type="matrix" values="0 0 0 0 0 0 0 0 0 0 0 0 0 0 0 0 0 0 127 0" result="hardAlpha"/>
<feOffset dy="6"/>
<feGaussianBlur stdDeviation="4"/>
<feComposite in2="hardAlpha" operator="out"/>
<feColorMatrix type="matrix" values="0 0 0 0 0 0 0 0 0 0 0 0 0 0 0 0 0 0 0.35 0"/>
<feBlend mode="normal" in2="BackgroundImageFix" result="effect1_dropShadow_5_4104"/>
<feBlend mode="normal" in="SourceGraphic" in2="effect1_dropShadow_5_4104" result="shape"/>
</filter>
<filter id="filter1_f_5_4104" x="0.905558" y="0.892206" width="251.8" height="411.41" filterUnits="userSpaceOnUse" color-interpolation-filters="sRGB">
<feFlood flood-opacity="0" result="BackgroundImageFix"/>
<feBlend mode="normal" in="SourceGraphic" in2="BackgroundImageFix" result="shape"/>
<feGaussianBlur stdDeviation="5.45" result="effect1_foregroundBlur_5_4104"/>
</filter>
<filter id="filter2_d_5_4104" x="40.9167" y="7.29221" width="178.462" height="105.559" filterUnits="userSpaceOnUse" color-interpolation-filters="sRGB">
<feFlood flood-opacity="0" result="BackgroundImageFix"/>
<feColorMatrix in="SourceAlpha" type="matrix" values="0 0 0 0 0 0 0 0 0 0 0 0 0 0 0 0 0 0 127 0" result="hardAlpha"/>
<feOffset dy="6"/>
<feGaussianBlur stdDeviation="5"/>
<feComposite in2="hardAlpha" operator="out"/>
<feColorMatrix type="matrix" values="0 0 0 0 0 0 0 0 0 0 0 0 0 0 0 0 0 0 0.19 0"/>
<feBlend mode="normal" in2="BackgroundImageFix" result="effect1_dropShadow_5_4104"/>
<feBlend mode="normal" in="SourceGraphic" in2="effect1_dropShadow_5_4104" result="shape"/>
</filter>
<linearGradient id="paint0_linear_5_4104" x1="126.806" y1="11.7922" x2="126.806" y2="401.403" gradientUnits="userSpaceOnUse">
<stop stop-color="#64170C"/>
<stop offset="1" stop-color="#5C4441" stop-opacity="0"/>
</linearGradient>
<radialGradient id="paint1_radial_5_4104" cx="0" cy="0" r="1" gradientUnits="userSpaceOnUse" gradientTransform="translate(126.806 206.597) rotate(90) scale(194.805 115)">
<stop stop-color="#1E0303"/>
<stop offset="1" stop-color="#481915" stop-opacity="0"/>
</radialGradient>
</defs>
</svg>
